<svg id="Layer_1" data-name="Layer 1" xmlns="http://www.w3.org/2000/svg" viewBox="0 0 1133.51 285.09"><defs><style>.cls-1{fill:#fff;}</style></defs><path class="cls-1" d="M349.48,46.85V66.1h25.85V78.31H349.48V98.66h29.15V111.2H334.08V34.31h44.55V46.85Z"/><path class="cls-1" d="M441.22,56.26q6.72,6.87,6.71,19.19V111.2h-15.4V77.54q0-7.26-3.63-11.16T419,62.47q-6.37,0-10.06,3.91t-3.69,11.16V111.2h-15.4V50.26h15.4v7.59a21.3,21.3,0,0,1,7.87-6.21,24.37,24.37,0,0,1,10.5-2.26Q434.51,49.38,441.22,56.26Z"/><path class="cls-1" d="M477.74,62.91V92.39c0,2.06.5,3.54,1.49,4.46s2.66,1.37,5,1.37h7.15v13H481.7q-19.47,0-19.47-18.92V62.91H455V50.26h7.26V35.19h15.51V50.26h13.64V62.91Z"/><path class="cls-1" d="M556,85.35H511.4Q512,92,516,95.69a14.21,14.21,0,0,0,10,3.74q8.58,0,12.21-7.37h16.61a27.75,27.75,0,0,1-10.12,14.47q-7.49,5.67-18.37,5.66a31.78,31.78,0,0,1-15.78-3.9,27.41,27.41,0,0,1-10.89-11.06,33.77,33.77,0,0,1-3.91-16.5,34.49,34.49,0,0,1,3.85-16.61,26.94,26.94,0,0,1,10.78-11A34.62,34.62,0,0,1,541.93,53,26.42,26.42,0,0,1,552.6,63.63a32.09,32.09,0,0,1,3.79,15.78A36.72,36.72,0,0,1,556,85.35ZM540.44,75a12.18,12.18,0,0,0-4.29-9.51,15.23,15.23,0,0,0-10.23-3.58,14,14,0,0,0-9.62,3.47A15.23,15.23,0,0,0,511.51,75Z"/><path class="cls-1" d="M588,52.13A21.57,21.57,0,0,1,599,49.38V65.55h-4.07q-7.26,0-10.94,3.41t-3.69,11.88V111.2h-15.4V50.26h15.4v9.46A21.77,21.77,0,0,1,588,52.13Z"/><path class="cls-1" d="M630.14,52.08a24.89,24.89,0,0,1,11.94-2.81,26.67,26.67,0,0,1,14.13,3.85,27.05,27.05,0,0,1,10,10.95,35.13,35.13,0,0,1,3.69,16.44,35.81,35.81,0,0,1-3.69,16.56,27.65,27.65,0,0,1-10,11.16,26.05,26.05,0,0,1-14.13,4,24.54,24.54,0,0,1-11.83-2.75,25.3,25.3,0,0,1-8.3-6.93v37.73h-15.4v-90H622v8.8A23.45,23.45,0,0,1,630.14,52.08ZM651.92,71A15.6,15.6,0,0,0,646,64.89a15.89,15.89,0,0,0-8-2.09A15.4,15.4,0,0,0,630.14,65a16,16,0,0,0-5.94,6.21A19.51,19.51,0,0,0,622,80.73a19.45,19.45,0,0,0,2.25,9.57,16,16,0,0,0,5.94,6.22A15.39,15.39,0,0,0,638,98.66a15.22,15.22,0,0,0,8-2.2,16.19,16.19,0,0,0,5.94-6.27,19.6,19.6,0,0,0,2.26-9.68A19.06,19.06,0,0,0,651.92,71Z"/><path class="cls-1" d="M701.53,52.13a21.61,21.61,0,0,1,11-2.75V65.55h-4.07q-7.26,0-10.95,3.41t-3.68,11.88V111.2h-15.4V50.26h15.4v9.46A21.75,21.75,0,0,1,701.53,52.13Z"/><path class="cls-1" d="M721.11,40.42A8.57,8.57,0,0,1,718.42,34a8.57,8.57,0,0,1,2.69-6.43,10.13,10.13,0,0,1,13.53,0,8.54,8.54,0,0,1,2.7,6.43,8.55,8.55,0,0,1-2.7,6.44,10.16,10.16,0,0,1-13.53,0Zm14.36,9.84V111.2h-15.4V50.26Z"/><path class="cls-1" d="M757.8,109.5a23.77,23.77,0,0,1-9.41-7.32A18.53,18.53,0,0,1,744.6,92h15.51a8.41,8.41,0,0,0,3.46,5.83,12.07,12.07,0,0,0,7.54,2.31A11.64,11.64,0,0,0,778,98.33a5.32,5.32,0,0,0,2.48-4.51,4.75,4.75,0,0,0-3-4.45,57.14,57.14,0,0,0-9.62-3.25,80.73,80.73,0,0,1-11.17-3.41,19.32,19.32,0,0,1-7.48-5.39Q746,73.69,746,67.53a15.83,15.83,0,0,1,2.91-9.24,19.71,19.71,0,0,1,8.36-6.6,31.4,31.4,0,0,1,12.82-2.42q10.89,0,17.38,5.45a20.19,20.19,0,0,1,7.15,14.68H779.91a8,8,0,0,0-3-5.77,11.23,11.23,0,0,0-7.2-2.15A11.41,11.41,0,0,0,763.24,63,4.92,4.92,0,0,0,761,67.31,5,5,0,0,0,764.07,72a47.94,47.94,0,0,0,9.57,3.24,81.72,81.72,0,0,1,10.89,3.41A19.27,19.27,0,0,1,792,84.09a15,15,0,0,1,3.25,9.73,16.16,16.16,0,0,1-2.92,9.46,19.19,19.19,0,0,1-8.36,6.55,35.08,35.08,0,0,1-26.12-.33Z"/><path class="cls-1" d="M861.31,85.35H816.76q.54,6.6,4.62,10.34a14.21,14.21,0,0,0,10,3.74q8.58,0,12.21-7.37h16.61a27.81,27.81,0,0,1-10.12,14.47q-7.49,5.67-18.37,5.66a31.84,31.84,0,0,1-15.79-3.9A27.41,27.41,0,0,1,805,97.23a33.87,33.87,0,0,1-3.9-16.5A34.49,34.49,0,0,1,805,64.12a26.88,26.88,0,0,1,10.78-11A34.6,34.6,0,0,1,847.28,53,26.35,26.35,0,0,1,858,63.63a32.1,32.1,0,0,1,3.8,15.78A36.72,36.72,0,0,1,861.31,85.35ZM845.8,75a12.24,12.24,0,0,0-4.29-9.51,15.23,15.23,0,0,0-10.23-3.58,14,14,0,0,0-9.63,3.47A15.22,15.22,0,0,0,816.87,75Z"/><path class="cls-1" d="M382.21,161.15a33.88,33.88,0,0,1,14.19,13.48,40.08,40.08,0,0,1,5,20.29,39.53,39.53,0,0,1-5,20.19,34,34,0,0,1-14.19,13.36,45.78,45.78,0,0,1-21.29,4.73H334.08V156.42h26.84A45.9,45.9,0,0,1,382.21,161.15Zm-3.14,52.36q6.6-6.6,6.6-18.59t-6.6-18.75q-6.6-6.76-18.7-6.77H349.48v50.71h10.89Q372.48,220.11,379.07,213.51Z"/><path class="cls-1" d="M466.41,207.35H421.86q.56,6.6,4.62,10.34a14.23,14.23,0,0,0,10,3.74q8.58,0,12.21-7.37h16.61a27.75,27.75,0,0,1-10.12,14.47q-7.47,5.67-18.37,5.66a31.8,31.8,0,0,1-15.78-3.9,27.41,27.41,0,0,1-10.89-11.06,33.77,33.77,0,0,1-3.91-16.5,34.61,34.61,0,0,1,3.85-16.61,26.94,26.94,0,0,1,10.78-11,34.62,34.62,0,0,1,31.52-.11,26.42,26.42,0,0,1,10.67,10.62,32.09,32.09,0,0,1,3.79,15.78A35.62,35.62,0,0,1,466.41,207.35ZM450.9,197a12.18,12.18,0,0,0-4.29-9.51,15.19,15.19,0,0,0-10.23-3.58,14,14,0,0,0-9.62,3.47A15.23,15.23,0,0,0,422,197Z"/><path class="cls-1" d="M485.22,231.5a23.74,23.74,0,0,1-9.4-7.32A18.54,18.54,0,0,1,472,214h15.51a8.42,8.42,0,0,0,3.47,5.83,12,12,0,0,0,7.53,2.31,11.67,11.67,0,0,0,6.88-1.76,5.31,5.31,0,0,0,2.47-4.51,4.75,4.75,0,0,0-3-4.45,57.65,57.65,0,0,0-9.63-3.25,80.12,80.12,0,0,1-11.16-3.41,19.32,19.32,0,0,1-7.48-5.39q-3.13-3.63-3.14-9.79a15.77,15.77,0,0,1,2.92-9.24,19.65,19.65,0,0,1,8.36-6.6,31.38,31.38,0,0,1,12.81-2.42q10.89,0,17.38,5.45t7.15,14.68H507.33a8,8,0,0,0-3-5.77,11.26,11.26,0,0,0-7.21-2.15,11.37,11.37,0,0,0-6.43,1.54,4.91,4.91,0,0,0-2.26,4.29,5,5,0,0,0,3.08,4.68,47.94,47.94,0,0,0,9.57,3.24A81.72,81.72,0,0,1,512,200.64a19.3,19.3,0,0,1,7.43,5.45,14.93,14.93,0,0,1,3.24,9.73,16.15,16.15,0,0,1-2.91,9.46,19.25,19.25,0,0,1-8.36,6.55,35.1,35.1,0,0,1-26.13-.33Z"/><path class="cls-1" d="M533.57,162.42a9,9,0,0,1,0-12.87,10.13,10.13,0,0,1,13.53,0,9,9,0,0,1,0,12.87,10.16,10.16,0,0,1-13.53,0Zm14.35,9.84V233.2h-15.4V172.26Z"/><path class="cls-1" d="M596.21,174a22.07,22.07,0,0,1,8.14,7v-8.69h15.51v61.38a32.76,32.76,0,0,1-3.41,15.13,25.35,25.35,0,0,1-10.23,10.56q-6.83,3.9-16.5,3.9-13,0-21.28-6.05a22.4,22.4,0,0,1-9.41-16.5h15.29a11.39,11.39,0,0,0,5.23,6.66,18.18,18.18,0,0,0,9.73,2.47,15.1,15.1,0,0,0,10.89-4q4.19-4,4.18-12.16v-9.46a23.34,23.34,0,0,1-8.19,7.15,24.46,24.46,0,0,1-11.94,2.86,26.17,26.17,0,0,1-14.08-4,27.55,27.55,0,0,1-10.06-11.16,35.81,35.81,0,0,1-3.69-16.56,35.24,35.24,0,0,1,3.69-16.39,27,27,0,0,1,10-11,26.67,26.67,0,0,1,14.13-3.85A25.54,25.54,0,0,1,596.21,174Zm5.94,19.14a15.53,15.53,0,0,0-5.94-6.16,15.87,15.87,0,0,0-8-2.15,15.44,15.44,0,0,0-13.8,8.2,19.06,19.06,0,0,0-2.26,9.51,19.69,19.69,0,0,0,2.26,9.63,16.13,16.13,0,0,0,5.94,6.32,15,15,0,0,0,7.86,2.2,15.86,15.86,0,0,0,8-2.14,15.53,15.53,0,0,0,5.94-6.16,22.15,22.15,0,0,0,0-19.25Z"/><path class="cls-1" d="M683.55,178.26q6.71,6.87,6.71,19.19V233.2h-15.4V199.54q0-7.26-3.63-11.16t-9.9-3.91q-6.37,0-10.06,3.91t-3.69,11.16V233.2h-15.4V172.26h15.4v7.59a21.22,21.22,0,0,1,7.87-6.21,24.37,24.37,0,0,1,10.5-2.26Q676.84,171.38,683.55,178.26Z"/><path class="cls-1" d="M737.61,231.22a23.66,23.66,0,0,1-10.17-7.92,20.82,20.82,0,0,1-3.85-12.21h16.5a10.67,10.67,0,0,0,3.35,7.48c2,1.84,4.79,2.75,8.31,2.75s6.42-.86,8.47-2.58A8.42,8.42,0,0,0,763.3,212a7.84,7.84,0,0,0-2.09-5.61A14.67,14.67,0,0,0,756,202.9a87.58,87.58,0,0,0-8.63-2.81,91.7,91.7,0,0,1-12.16-4.34,21.33,21.33,0,0,1-8-6.49q-3.35-4.35-3.35-11.61a20.8,20.8,0,0,1,3.41-11.88,21.69,21.69,0,0,1,9.57-7.75,34.77,34.77,0,0,1,14.08-2.7q11.88,0,19.3,5.78t8.2,16.11H761.43a8.8,8.8,0,0,0-3.36-6.54,12.64,12.64,0,0,0-8.3-2.59,10.71,10.71,0,0,0-7.21,2.31,8.37,8.37,0,0,0-2.69,6.71,7,7,0,0,0,2,5.12,15.52,15.52,0,0,0,5.06,3.3q3,1.26,8.53,2.91a90.59,90.59,0,0,1,12.21,4.4,22,22,0,0,1,8.14,6.6q3.4,4.41,3.41,11.55a21.69,21.69,0,0,1-3.19,11.44,22.53,22.53,0,0,1-9.35,8.42A31.89,31.89,0,0,1,752.08,234,36.39,36.39,0,0,1,737.61,231.22Z"/><path class="cls-1" d="M848.11,172.26,810.38,262H794l13.2-30.36-24.42-59.4H800l15.73,42.57,16-42.57Z"/><path class="cls-1" d="M863.51,231.5a23.77,23.77,0,0,1-9.41-7.32A18.53,18.53,0,0,1,850.31,214h15.51a8.45,8.45,0,0,0,3.46,5.83,12.07,12.07,0,0,0,7.54,2.31,11.64,11.64,0,0,0,6.87-1.76,5.32,5.32,0,0,0,2.48-4.51,4.75,4.75,0,0,0-3-4.45,57.14,57.14,0,0,0-9.62-3.25,80.73,80.73,0,0,1-11.17-3.41,19.4,19.4,0,0,1-7.48-5.39q-3.14-3.63-3.13-9.79a15.83,15.83,0,0,1,2.91-9.24,19.71,19.71,0,0,1,8.36-6.6,31.4,31.4,0,0,1,12.82-2.42q10.89,0,17.38,5.45a20.19,20.19,0,0,1,7.15,14.68H885.62a8,8,0,0,0-3-5.77,11.23,11.23,0,0,0-7.2-2.15A11.43,11.43,0,0,0,869,185a4.92,4.92,0,0,0-2.25,4.29,5,5,0,0,0,3.08,4.68,47.94,47.94,0,0,0,9.57,3.24,81.72,81.72,0,0,1,10.89,3.41,19.27,19.27,0,0,1,7.42,5.45,15,15,0,0,1,3.25,9.73,16.09,16.09,0,0,1-2.92,9.46,19.19,19.19,0,0,1-8.36,6.55,35.08,35.08,0,0,1-26.12-.33Z"/><path class="cls-1" d="M928.74,184.91v29.48c0,2.06.49,3.54,1.48,4.46s2.66,1.37,5,1.37h7.15v13H932.7q-19.47,0-19.47-18.92V184.91H906V172.26h7.26V157.19h15.51v15.07h13.64v12.65Z"/><path class="cls-1" d="M1007,207.35H962.4q.54,6.6,4.62,10.34a14.21,14.21,0,0,0,10,3.74q8.58,0,12.21-7.37h16.61a27.81,27.81,0,0,1-10.12,14.47q-7.49,5.67-18.37,5.66a31.84,31.84,0,0,1-15.79-3.9,27.41,27.41,0,0,1-10.89-11.06,33.87,33.87,0,0,1-3.9-16.5,34.49,34.49,0,0,1,3.85-16.61,26.88,26.88,0,0,1,10.78-11,34.6,34.6,0,0,1,31.51-.11,26.42,26.42,0,0,1,10.67,10.62,32.1,32.1,0,0,1,3.8,15.78A36.72,36.72,0,0,1,1007,207.35ZM991.44,197a12.24,12.24,0,0,0-4.29-9.51,15.23,15.23,0,0,0-10.23-3.58,14,14,0,0,0-9.63,3.47,15.22,15.22,0,0,0-4.78,9.62Z"/><path class="cls-1" d="M1109.63,178.26q6.87,6.87,6.88,19.19V233.2h-15.4V199.54q0-7.14-3.63-10.94t-9.9-3.8q-6.27,0-10,3.8t-3.68,10.94V233.2h-15.4V199.54q0-7.14-3.63-10.94t-9.9-3.8q-6.39,0-10.07,3.8t-3.68,10.94V233.2h-15.4V172.26h15.4v7.37a20.55,20.55,0,0,1,7.64-6,24,24,0,0,1,10.29-2.2,26.44,26.44,0,0,1,12.76,3,21.25,21.25,0,0,1,8.69,8.63,22,22,0,0,1,8.63-8.47,24.68,24.68,0,0,1,12.27-3.19Q1102.76,171.38,1109.63,178.26Z"/><path class="cls-1" d="M261.9,12.72a16,16,0,0,1,6.75,15.6l-32,208a16,16,0,0,1-22,12.3l-59.8-24.85-34.25,37a16,16,0,0,1-27.75-10.9v-41.8a7.83,7.83,0,0,1,2.1-5.35l83.8-91.45A8,8,0,0,0,167.55,100L65.85,190.32,21.7,168.22a15.93,15.93,0,0,1-8.85-13.85,16.11,16.11,0,0,1,8-14.35l224-128a16.05,16.05,0,0,1,17,.7Z"/></svg>